<svg xmlns="http://www.w3.org/2000/svg" xml:space="preserve" width="301" height="315" style="fill-rule:evenodd;clip-rule:evenodd;stroke-linejoin:round;stroke-miterlimit:2"><path id="Artboard1" d="M0 0h300.709v314.623H0z" style="fill:none"/><g id="Layer-1"><path id="path10261" d="M70.877 181.417h65.464l32.732 56.693c.835-1.458-130.927 0-130.927 0z" style="fill:#c4deb6;fill-rule:nonzero"/><path id="path10263" d="m136.341 68.032 32.732 56.692-32.732 56.693H70.877z" style="fill:#eeabab;fill-rule:nonzero"/><path id="path10265" d="m169.073 124.724 65.463 113.386h-65.463l-32.732-56.693z" style="fill:#b2c2eb;fill-rule:nonzero"/><circle id="circle10376" cx="38.146" cy="238.11" r="10" style="fill:#909090"/><circle id="circle10400" cx="169.073" cy="238.11" r="10" style="fill:#909090"/><circle id="circle10402" cx="234.377" cy="238.11" r="10" style="fill:#909090"/><circle id="circle10404" cx="136.341" cy="181.417" r="10" style="fill:#909090"/><circle id="circle10408" cx="71.706" cy="181.417" r="10" style="fill:#909090"/><circle id="circle10410" cx="169.073" cy="124.724" r="10" style="fill:#909090"/><circle id="circle10412" cx="136.341" cy="68.032" r="10" style="fill:#909090"/><g id="g10537"><path id="path10522" d="m54.396 78.594 16.365 28.346-16.365 28.347H21.664z" style="fill:#eeabab;fill-rule:nonzero"/><circle id="circle10524" cx="54.396" cy="135.287" r="5" style="fill:#909090"/><circle id="circle10526" cx="22.078" cy="135.287" r="5" style="fill:#909090"/><circle id="circle10528" cx="70.761" cy="106.94" r="5" style="fill:#909090"/><circle id="circle10530" cx="54.396" cy="78.594" r="5" style="fill:#909090"/></g><text id="text10541" x="49.279" y="97.381" style="fill:#ca0000;font-family:Helvetica;font-size:13.333px">X</text><text id="text10545" x="55.216" y="112.352" style="fill:#ca0000;font-family:Helvetica;font-size:13.333px">X</text><text id="text10549" x="48.006" y="129.728" style="fill:#ca0000;font-family:Helvetica;font-size:13.333px">X</text><text id="text10553" x="29.64" y="133.397" style="fill:#ca0000;font-family:Helvetica;font-size:13.333px">X</text><g id="g10667"><path id="path10657" d="m97.063 5 16.366 28.346-16.366 28.347H64.331z" style="fill:#eeabab;fill-rule:nonzero"/><circle id="circle10659" cx="97.063" cy="61.693" r="5" style="fill:#909090"/><circle id="circle10661" cx="64.745" cy="61.693" r="5" style="fill:#909090"/><circle id="circle10663" cx="113.429" cy="33.346" r="5" style="fill:#909090"/><circle id="circle10665" cx="97.063" cy="5" r="5" style="fill:#909090"/></g><text id="text10671" x="91.946" y="23.787" style="fill:#5640d1;font-family:Helvetica;font-size:13.333px">Z</text><text id="text10675" x="97.883" y="38.758" style="fill:#5640d1;font-family:Helvetica;font-size:13.333px">Z</text><text id="text10679" x="90.673" y="56.134" style="fill:#5640d1;font-family:Helvetica;font-size:13.333px">Z</text><text id="text10683" x="72.307" y="59.803" style="fill:#5640d1;font-family:Helvetica;font-size:13.333px">Z</text><path id="path11878" d="m213.17 77.48 32.732 56.693H213.17l-16.366-28.346z" style="fill:#b2c2eb;fill-rule:nonzero"/><circle id="circle11880" cx="213.17" cy="134.173" r="5" style="fill:#909090"/><circle id="circle11882" cx="245.823" cy="134.173" r="5" style="fill:#909090"/><circle id="circle11884" cx="196.804" cy="105.827" r="5" style="fill:#909090"/><circle id="circle11886" cx="213.17" cy="77.48" r="5" style="fill:#909090"/><path id="path11899" d="M21.366 280.355h32.732l16.365 28.346c.418-.729-65.463 0-65.463 0z" style="fill:#c4deb6;fill-rule:nonzero"/><circle id="circle11901" cx="5" cy="308.701" r="5" style="fill:#909090"/><circle id="circle11903" cx="70.463" cy="308.701" r="5" style="fill:#909090"/><circle id="circle11905" cx="54.098" cy="280.355" r="5" style="fill:#909090"/><circle id="circle11907" cx="21.78" cy="280.355" r="5" style="fill:#909090"/><path id="path12471" d="m262.268 162.52 32.731 56.693h-32.731l-16.366-28.347z" style="fill:#b2c2eb;fill-rule:nonzero"/><circle id="circle12473" cx="262.268" cy="219.213" r="5" style="fill:#909090"/><circle id="circle12475" cx="294.92" cy="219.213" r="5" style="fill:#909090"/><circle id="circle12477" cx="245.902" cy="190.866" r="5" style="fill:#909090"/><circle id="circle12479" cx="262.268" cy="162.52" r="5" style="fill:#909090"/><path id="path12597" d="M118.338 280.63h32.732l16.366 28.347c.418-.73-65.463 0-65.463 0z" style="fill:#c4deb6;fill-rule:nonzero"/><circle id="circle12599" cx="101.973" cy="308.977" r="5" style="fill:#909090"/><circle id="circle12601" cx="167.436" cy="308.977" r="5" style="fill:#909090"/><circle id="circle12603" cx="151.07" cy="280.63" r="5" style="fill:#909090"/><circle id="circle12605" cx="118.753" cy="280.63" r="5" style="fill:#909090"/><text id="text12609" x="21.44" y="295.003" style="fill:#ca0000;font-family:Helvetica;font-size:13.333px">X</text><text id="text12613" x="42.405" y="295.003" style="fill:#ca0000;font-family:Helvetica;font-size:13.333px">X</text><text id="text12617" x="13.191" y="306.688" style="fill:#ca0000;font-family:Helvetica;font-size:13.333px">X</text><text id="text12621" x="51.685" y="306.688" style="fill:#ca0000;font-family:Helvetica;font-size:13.333px">X</text><text id="text12625" x="122.037" y="292.914" style="fill:#5640d1;font-family:Helvetica;font-size:13.333px">Z</text><text id="text12629" x="137.847" y="292.914" style="fill:#5640d1;font-family:Helvetica;font-size:13.333px">Z</text><text id="text12633" x="110.155" y="306.142" style="fill:#5640d1;font-family:Helvetica;font-size:13.333px">Z</text><text id="text12637" x="149.336" y="306.142" style="fill:#5640d1;font-family:Helvetica;font-size:13.333px">Z</text><text id="text12641" x="201.804" y="109.606" style="fill:#ca0000;font-family:Helvetica;font-size:13.333px">X</text><text id="text12645" x="208.351" y="94.488" style="fill:#ca0000;font-family:Helvetica;font-size:13.333px">X</text><text id="text12649" x="211.624" y="126.614" style="fill:#ca0000;font-family:Helvetica;font-size:13.333px">X</text><text id="text12653" x="228.808" y="131.082" style="fill:#ca0000;font-family:Helvetica;font-size:13.333px">X</text><text id="text12657" x="250.902" y="194.646" style="fill:#5640d1;font-family:Helvetica;font-size:13.333px">Z</text><text id="text12661" x="260.721" y="211.654" style="fill:#5640d1;font-family:Helvetica;font-size:13.333px">Z</text><text id="text12665" x="277.087" y="217.323" style="fill:#5640d1;font-family:Helvetica;font-size:13.333px">Z</text><text id="text12669" x="257.153" y="179.861" style="fill:#5640d1;font-family:Helvetica;font-size:13.333px">Z</text><text id="text13844" x="131.526" y="186.264" style="fill:#fff;font-family:Helvetica-Bold,Helvetica;font-size:13.333px;font-weight:700">7</text><text id="text14047" x="229.41" y="242.97" style="fill:#fff;font-family:Helvetica-Bold,Helvetica;font-size:13.333px;font-weight:700">1</text><text id="text14051" x="33.136" y="243.052" style="fill:#fff;font-family:Helvetica-Bold,Helvetica;font-size:13.333px;font-weight:700">2</text><text id="text14055" x="164.336" y="242.957" style="fill:#fff;font-family:Helvetica-Bold,Helvetica;font-size:13.333px;font-weight:700">3</text><text id="text14059" x="131.592" y="72.866" style="fill:#fff;font-family:Helvetica-Bold,Helvetica;font-size:13.333px;font-weight:700">4</text><text id="text14063" x="66.868" y="186.164" style="fill:#fff;font-family:Helvetica-Bold,Helvetica;font-size:13.333px;font-weight:700">6</text><text id="text14067" x="164.235" y="129.562" style="fill:#fff;font-family:Helvetica-Bold,Helvetica;font-size:13.333px;font-weight:700">5</text></g></svg>